<svg version="1.1" xmlns="http://www.w3.org/2000/svg" xmlns:xlink="http://www.w3.org/1999/xlink" width="512px" height="512px" viewBox="0,0,256,256"><g fill="#884a39" fill-rule="nonzero" stroke="none" stroke-width="1" stroke-linecap="butt" stroke-linejoin="miter" stroke-miterlimit="10" stroke-dasharray="" stroke-dashoffset="0" font-family="none" font-weight="none" font-size="none" text-anchor="none" style="mix-blend-mode: normal"><g transform="translate(0.21029,-0.18546) scale(0.5,0.5)"><path d="M169.7,0.9c-22.8,-1.6 -41.9,14 -47.5,34.7l-11.8,44.4c0.5,0 1.1,0 1.6,0c176.7,0 320,143.3 320,320c0,0.5 0,1.1 0,1.6l44.4,-11.8c20.8,-5.5 36.3,-24.7 34.7,-47.5c-12.6,-182.8 -158.6,-328.8 -341.4,-341.4zM399.8,410.2c0.1,-3.4 0.2,-6.8 0.2,-10.2c0,-159.1 -128.9,-288 -288,-288c-3.4,0 -6.8,0.1 -10.2,0.2l-101.3,379.7c-1.5,5.5 0.1,11.4 4.1,15.4c4,4 9.9,5.6 15.4,4.1zM176,208c17.67311,0 32,14.32689 32,32c0,17.67311 -14.32689,32 -32,32c-17.67311,0 -32,-14.32689 -32,-32c0,-17.67311 14.32689,-32 32,-32zM240,336c0,-17.67311 14.32689,-32 32,-32c17.67311,0 32,14.32689 32,32c0,17.67311 -14.32689,32 -32,32c-17.67311,0 -32,-14.32689 -32,-32zM96,384c0,-17.67311 14.32689,-32 32,-32c17.67311,0 32,14.32689 32,32c0,17.67311 -14.32689,32 -32,32c-17.67311,0 -32,-14.32689 -32,-32z"></path></g></g></svg>